# xmcd CD database file
#
# Track frame offsets:
#	150
#	19289
#	36443
#	52516
#	68959
#	82509
#	99149
#	115884
#	134327
#	148137
#	167915
#	182150
#	198075
#	216536
#	229526
#
# Disc length: 3251 seconds
#
# Revision: 5
# Processed by: cddbd v1.5.2PL0 Copyright (c) Steve Scherf et al.
# Submitted via: CDex 1.70beta2
#
DISCID=c90cb10f
DTITLE=Intocable - (2002) Sueños
DYEAR=2002
DGENRE=Norteña
TTITLE0=Sueña
TTITLE1=Vuelve
TTITLE2=Te sigo amando
TTITLE3=Jamás te dije
TTITLE4=Muy a tu manera
TTITLE5=Alguien como tú
TTITLE6=Desolación
TTITLE7=Más débil que tú
TTITLE8=El poder de tus manos
TTITLE9=Si te vas
TTITLE10=En qué fallamos?
TTITLE11=Nada es igual
TTITLE12=Voy a extrañarte
TTITLE13=Más que un sueño
TTITLE14=Cómo te extraño!
EXTD=YEAR: 2002
EXTT0=
EXTT1=
EXTT2=
EXTT3=
EXTT4=
EXTT5=
EXTT6=
EXTT7=
EXTT8=
EXTT9=
EXTT10=
EXTT11=
EXTT12=
EXTT13=
EXTT14=
PLAYORDER=
